<?xml version='1.0' encoding='us-ascii'?>
<svg width="399.40mm" height="233.60mm" viewBox="0.0 0.0 399.40 233.60" xmlns="http://www.w3.org/2000/svg" xmlns:dc="http://purl.org/dc/elements/1.1/" xmlns:cc="http://creativecommons.org/ns#" xmlns:rdf="http://www.w3.org/1999/02/22-rdf-syntax-ns#" xmlns:svg="http://www.w3.org/2000/svg" xmlns:xlink="http://www.w3.org/1999/xlink" xmlns:inkscape="http://www.inkscape.org/namespaces/inkscape">
<!--
PaintStorage - Stackable paint storage

Created with Boxes.py (https://festi.info/boxes.py)
Creation date: 2021-04-28 11:57:10
Command line (remove spaces between dashes): boxes PaintStorage - -x 100 - -y 300 - -canheight 50 - -candiameter 30 - -minspace 10 - -hexpattern false - -thickness 3 - -tabs 0 - -debug false - -reference 100 - -burn 0.10000000149011612 - -FingerJoint_angle 90 - -FingerJoint_style rectangular - -FingerJoint_surroundingspaces 2 - -FingerJoint_edge_width 1 - -FingerJoint_finger 2 - -FingerJoint_play 0 - -FingerJoint_space 2 - -FingerJoint_width 1 - -Stackable_angle 60 - -Stackable_height 2 - -Stackable_holedistance 1 - -Stackable_width 4 - -output box.svg
-->
<title>PaintStorage</title>
<metadata>
<rdf:RDF><cc:Work>
<dc:title>Shelf - PaintStorage</dc:title>
<dc:date>2021-04-28 11:57:10</dc:date>
<dc:source>boxes PaintStorage --x 100 --y 300 --canheight 50 --candiameter 30 --minspace 10 --hexpattern false --thickness 3 --tabs 0 --debug false --reference 100 --burn 0.10000000149011612 --FingerJoint_angle 90 --FingerJoint_style rectangular --FingerJoint_surroundingspaces 2 --FingerJoint_edge_width 1 --FingerJoint_finger 2 --FingerJoint_play 0 --FingerJoint_space 2 --FingerJoint_width 1 --Stackable_angle 60 --Stackable_height 2 --Stackable_holedistance 1 --Stackable_width 4 --output box.svg</dc:source>
<dc:description>Stackable paint storage

Created with Boxes.py (https://festi.info/boxes.py)
Command line: boxes PaintStorage --x 100 --y 300 --canheight 50 --candiameter 30 --minspace 10 --hexpattern false --thickness 3 --tabs 0 --debug false --reference 100 --burn 0.10000000149011612 --FingerJoint_angle 90 --FingerJoint_style rectangular --FingerJoint_surroundingspaces 2 --FingerJoint_edge_width 1 --FingerJoint_finger 2 --FingerJoint_play 0 --FingerJoint_space 2 --FingerJoint_width 1 --Stackable_angle 60 --Stackable_height 2 --Stackable_holedistance 1 --Stackable_width 4 --output box.svg
</dc:description>
</cc:Work></rdf:RDF></metadata>
<g id="p-0" style="fill:none;stroke-linecap:round;stroke-linejoin:round;">
  <path d="M 10.100 223.600 H 110.100 V 213.600 H 10.100 V 223.600 Z" stroke="rgb(0,0,0)" stroke-width="0.20" />
  <text transform="matrix( 1.000 0.000 0.000 1.000 60.100 213.600 )" style="font-family: sans-serif ; font-weight: normal; font-style: normal; fill: rgb(0,0,0)" font-size="10px" text-anchor="middle" alignment-baseline="hanging">100mm</text>
</g>
<g id="p-1" style="fill:none;stroke-linecap:round;stroke-linejoin:round;">
  <path d="M 30.767 186.700 C 29.819 186.700 28.888 186.450 28.067 185.977 C 27.246 185.503 26.564 184.821 26.090 184.000 C 25.616 183.179 25.367 182.248 25.367 181.300 V 142.300 C 25.367 141.352 25.616 140.421 26.090 139.600 C 26.564 138.779 27.246 138.097 28.067 137.623 C 28.888 137.150 29.819 136.900 30.767 136.900 C 31.715 136.900 32.646 137.150 33.467 137.623 C 34.288 138.097 34.969 138.779 35.443 139.600 C 35.917 140.421 36.167 141.352 36.167 142.300 V 181.300 C 36.167 182.248 35.917 183.179 35.443 184.000 C 34.969 184.821 34.288 185.503 33.467 185.977 C 32.646 186.450 31.715 186.700 30.767 186.700 Z" stroke="rgb(0,0,255)" stroke-width="0.20" />
  <path d="M 16.100 211.900 H 60.100 H 72.100 C 72.155 211.900 72.200 211.855 72.200 211.800 V 199.800 C 72.200 198.729 71.918 197.677 71.383 196.750 C 70.847 195.823 70.077 195.053 69.150 194.517 C 68.253 193.999 67.508 193.255 66.990 192.358 C 66.473 191.461 66.200 190.443 66.200 189.408 V 134.192 C 66.200 133.157 66.473 132.139 66.990 131.242 C 67.508 130.345 68.253 129.601 69.150 129.083 C 70.077 128.547 70.847 127.777 71.383 126.850 C 71.918 125.923 72.200 124.871 72.200 123.800 V 111.800 C 72.200 111.745 72.155 111.700 72.100 111.700 H 60.100 H 16.100 C 16.045 111.700 16.000 111.745 16.000 111.800 V 123.800 C 16.000 124.836 15.727 125.853 15.210 126.750 C 14.692 127.647 13.947 128.392 13.050 128.910 C 12.123 129.445 11.353 130.215 10.817 131.142 C 10.282 132.070 10.000 133.122 10.000 134.192 V 189.408 C 10.000 190.478 10.282 191.530 10.817 192.458 C 11.353 193.385 12.123 194.155 13.050 194.690 C 13.947 195.208 14.692 195.953 15.210 196.850 C 15.727 197.747 16.000 198.764 16.000 199.800 V 211.800 C 16.000 211.855 16.045 211.900 16.100 211.900 Z" stroke="rgb(0,0,0)" stroke-width="0.20" />
  <path d="M 44.833 197.800 V 200.700 C 44.833 200.800 44.933 200.700 44.833 200.700 H 42.033 C 41.933 200.700 42.033 200.800 42.033 200.700 V 194.900 C 42.033 194.800 41.933 194.900 42.033 194.900 H 44.833 C 44.933 194.900 44.833 194.800 44.833 194.900 V 197.800 Z" stroke="rgb(0,0,255)" stroke-width="0.20" />
  <path d="M 44.833 185.800 V 188.700 C 44.833 188.800 44.933 188.700 44.833 188.700 H 42.033 C 41.933 188.700 42.033 188.800 42.033 188.700 V 182.900 C 42.033 182.800 41.933 182.900 42.033 182.900 H 44.833 C 44.933 182.900 44.833 182.800 44.833 182.900 V 185.800 Z" stroke="rgb(0,0,255)" stroke-width="0.20" />
  <path d="M 44.833 173.800 V 176.700 C 44.833 176.800 44.933 176.700 44.833 176.700 H 42.033 C 41.933 176.700 42.033 176.800 42.033 176.700 V 170.900 C 42.033 170.800 41.933 170.900 42.033 170.900 H 44.833 C 44.933 170.900 44.833 170.800 44.833 170.900 V 173.800 Z" stroke="rgb(0,0,255)" stroke-width="0.20" />
  <path d="M 44.833 161.800 V 164.700 C 44.833 164.800 44.933 164.700 44.833 164.700 H 42.033 C 41.933 164.700 42.033 164.800 42.033 164.700 V 158.900 C 42.033 158.800 41.933 158.900 42.033 158.900 H 44.833 C 44.933 158.900 44.833 158.800 44.833 158.900 V 161.800 Z" stroke="rgb(0,0,255)" stroke-width="0.20" />
  <path d="M 44.833 149.800 V 152.700 C 44.833 152.800 44.933 152.700 44.833 152.700 H 42.033 C 41.933 152.700 42.033 152.800 42.033 152.700 V 146.900 C 42.033 146.800 41.933 146.900 42.033 146.900 H 44.833 C 44.933 146.900 44.833 146.800 44.833 146.900 V 149.800 Z" stroke="rgb(0,0,255)" stroke-width="0.20" />
  <path d="M 44.833 137.800 V 140.700 C 44.833 140.800 44.933 140.700 44.833 140.700 H 42.033 C 41.933 140.700 42.033 140.800 42.033 140.700 V 134.900 C 42.033 134.800 41.933 134.900 42.033 134.900 H 44.833 C 44.933 134.900 44.833 134.800 44.833 134.900 V 137.800 Z" stroke="rgb(0,0,255)" stroke-width="0.20" />
  <path d="M 44.833 125.800 V 128.700 C 44.833 128.800 44.933 128.700 44.833 128.700 H 42.033 C 41.933 128.700 42.033 128.800 42.033 128.700 V 122.900 C 42.033 122.800 41.933 122.900 42.033 122.900 H 44.833 C 44.933 122.900 44.833 122.800 44.833 122.900 V 125.800 Z" stroke="rgb(0,0,255)" stroke-width="0.20" />
  <path d="M 63.100 197.800 V 200.700 C 63.100 200.800 63.200 200.700 63.100 200.700 H 60.300 C 60.200 200.700 60.300 200.800 60.300 200.700 V 194.900 C 60.300 194.800 60.200 194.900 60.300 194.900 H 63.100 C 63.200 194.900 63.100 194.800 63.100 194.900 V 197.800 Z" stroke="rgb(0,0,255)" stroke-width="0.20" />
  <path d="M 63.100 185.800 V 188.700 C 63.100 188.800 63.200 188.700 63.100 188.700 H 60.300 C 60.200 188.700 60.300 188.800 60.300 188.700 V 182.900 C 60.300 182.800 60.200 182.900 60.300 182.900 H 63.100 C 63.200 182.900 63.100 182.800 63.100 182.900 V 185.800 Z" stroke="rgb(0,0,255)" stroke-width="0.20" />
  <path d="M 63.100 173.800 V 176.700 C 63.100 176.800 63.200 176.700 63.100 176.700 H 60.300 C 60.200 176.700 60.300 176.800 60.300 176.700 V 170.900 C 60.300 170.800 60.200 170.900 60.300 170.900 H 63.100 C 63.200 170.900 63.100 170.800 63.100 170.900 V 173.800 Z" stroke="rgb(0,0,255)" stroke-width="0.20" />
  <path d="M 63.100 161.800 V 164.700 C 63.100 164.800 63.200 164.700 63.100 164.700 H 60.300 C 60.200 164.700 60.300 164.800 60.300 164.700 V 158.900 C 60.300 158.800 60.200 158.900 60.300 158.900 H 63.100 C 63.200 158.900 63.100 158.800 63.100 158.900 V 161.800 Z" stroke="rgb(0,0,255)" stroke-width="0.20" />
  <path d="M 63.100 149.800 V 152.700 C 63.100 152.800 63.200 152.700 63.100 152.700 H 60.300 C 60.200 152.700 60.300 152.800 60.300 152.700 V 146.900 C 60.300 146.800 60.200 146.900 60.300 146.900 H 63.100 C 63.200 146.900 63.100 146.800 63.100 146.900 V 149.800 Z" stroke="rgb(0,0,255)" stroke-width="0.20" />
  <path d="M 63.100 137.800 V 140.700 C 63.100 140.800 63.200 140.700 63.100 140.700 H 60.300 C 60.200 140.700 60.300 140.800 60.300 140.700 V 134.900 C 60.300 134.800 60.200 134.900 60.300 134.900 H 63.100 C 63.200 134.900 63.100 134.800 63.100 134.900 V 137.800 Z" stroke="rgb(0,0,255)" stroke-width="0.20" />
  <path d="M 63.100 125.800 V 128.700 C 63.100 128.800 63.200 128.700 63.100 128.700 H 60.300 C 60.200 128.700 60.300 128.800 60.300 128.700 V 122.900 C 60.300 122.800 60.200 122.900 60.300 122.900 H 63.100 C 63.200 122.900 63.100 122.800 63.100 122.900 V 125.800 Z" stroke="rgb(0,0,255)" stroke-width="0.20" />
</g>
<g id="p-2" style="fill:none;stroke-linecap:round;stroke-linejoin:round;">
  <path d="M 76.800 211.900 H 376.800 C 376.855 211.900 376.900 211.855 376.900 211.800 V 200.900 C 376.900 200.800 376.800 200.900 376.900 200.900 H 379.800 C 379.855 200.900 379.900 200.855 379.900 200.800 V 194.800 C 379.900 194.745 379.855 194.700 379.800 194.700 H 376.900 C 376.800 194.700 376.900 194.800 376.900 194.700 V 188.900 C 376.900 188.800 376.800 188.900 376.900 188.900 H 379.800 C 379.855 188.900 379.900 188.855 379.900 188.800 V 182.800 C 379.900 182.745 379.855 182.700 379.800 182.700 H 376.900 C 376.800 182.700 376.900 182.800 376.900 182.700 V 176.900 C 376.900 176.800 376.800 176.900 376.900 176.900 H 379.800 C 379.855 176.900 379.900 176.855 379.900 176.800 V 170.800 C 379.900 170.745 379.855 170.700 379.800 170.700 H 376.900 C 376.800 170.700 376.900 170.800 376.900 170.700 V 164.900 C 376.900 164.800 376.800 164.900 376.900 164.900 H 379.800 C 379.855 164.900 379.900 164.855 379.900 164.800 V 158.800 C 379.900 158.745 379.855 158.700 379.800 158.700 H 376.900 C 376.800 158.700 376.900 158.800 376.900 158.700 V 152.900 C 376.900 152.800 376.800 152.900 376.900 152.900 H 379.800 C 379.855 152.900 379.900 152.855 379.900 152.800 V 146.800 C 379.900 146.745 379.855 146.700 379.800 146.700 H 376.900 C 376.800 146.700 376.900 146.800 376.900 146.700 V 140.900 C 376.900 140.800 376.800 140.900 376.900 140.900 H 379.800 C 379.855 140.900 379.900 140.855 379.900 140.800 V 134.800 C 379.900 134.745 379.855 134.700 379.800 134.700 H 376.900 C 376.800 134.700 376.900 134.800 376.900 134.700 V 128.900 C 376.900 128.800 376.800 128.900 376.900 128.900 H 379.800 C 379.855 128.900 379.900 128.855 379.900 128.800 V 122.800 C 379.900 122.745 379.855 122.700 379.800 122.700 H 376.900 C 376.800 122.700 376.900 122.800 376.900 122.700 V 111.800 C 376.900 111.745 376.855 111.700 376.800 111.700 H 76.800 C 76.745 111.700 76.700 111.745 76.700 111.800 V 122.700 C 76.700 122.800 76.800 122.700 76.700 122.700 H 73.800 C 73.745 122.700 73.700 122.745 73.700 122.800 V 128.800 C 73.700 128.855 73.745 128.900 73.800 128.900 H 76.700 C 76.800 128.900 76.700 128.800 76.700 128.900 V 134.700 C 76.700 134.800 76.800 134.700 76.700 134.700 H 73.800 C 73.745 134.700 73.700 134.745 73.700 134.800 V 140.800 C 73.700 140.855 73.745 140.900 73.800 140.900 H 76.700 C 76.800 140.900 76.700 140.800 76.700 140.900 V 146.700 C 76.700 146.800 76.800 146.700 76.700 146.700 H 73.800 C 73.745 146.700 73.700 146.745 73.700 146.800 V 152.800 C 73.700 152.855 73.745 152.900 73.800 152.900 H 76.700 C 76.800 152.900 76.700 152.800 76.700 152.900 V 158.700 C 76.700 158.800 76.800 158.700 76.700 158.700 H 73.800 C 73.745 158.700 73.700 158.745 73.700 158.800 V 164.800 C 73.700 164.855 73.745 164.900 73.800 164.900 H 76.700 C 76.800 164.900 76.700 164.800 76.700 164.900 V 170.700 C 76.700 170.800 76.800 170.700 76.700 170.700 H 73.800 C 73.745 170.700 73.700 170.745 73.700 170.800 V 176.800 C 73.700 176.855 73.745 176.900 73.800 176.900 H 76.700 C 76.800 176.900 76.700 176.800 76.700 176.900 V 182.700 C 76.700 182.800 76.800 182.700 76.700 182.700 H 73.800 C 73.745 182.700 73.700 182.745 73.700 182.800 V 188.800 C 73.700 188.855 73.745 188.900 73.800 188.900 H 76.700 C 76.800 188.900 76.700 188.800 76.700 188.900 V 194.700 C 76.700 194.800 76.800 194.700 76.700 194.700 H 73.800 C 73.745 194.700 73.700 194.745 73.700 194.800 V 200.800 C 73.700 200.855 73.745 200.900 73.800 200.900 H 76.700 C 76.800 200.900 76.700 200.800 76.700 200.900 V 211.800 C 76.700 211.855 76.745 211.900 76.800 211.900 Z" stroke="rgb(0,0,0)" stroke-width="0.20" />
</g>
<g id="p-3" style="fill:none;stroke-linecap:round;stroke-linejoin:round;">
  <path d="M 381.500 211.900 H 389.300 C 389.355 211.900 389.400 211.855 389.400 211.800 V 111.800 C 389.400 111.745 389.355 111.700 389.300 111.700 H 381.500 C 381.445 111.700 381.400 111.745 381.400 111.800 V 211.800 C 381.400 211.855 381.445 211.900 381.500 211.900 Z" stroke="rgb(0,0,0)" stroke-width="0.20" />
</g>
<g id="p-4" style="fill:none;stroke-linecap:round;stroke-linejoin:round;">
  <path d="M 381.500 110.200 H 389.300 C 389.355 110.200 389.400 110.155 389.400 110.100 V 10.100 C 389.400 10.045 389.355 10.000 389.300 10.000 H 381.500 C 381.445 10.000 381.400 10.045 381.400 10.100 V 110.100 C 381.400 110.155 381.445 110.200 381.500 110.200 Z" stroke="rgb(0,0,0)" stroke-width="0.20" />
</g>
<g id="p-5" style="fill:none;stroke-linecap:round;stroke-linejoin:round;">
  <path d="M 113.129 85.100 C 113.129 87.956 112.308 90.753 110.763 93.156 C 109.219 95.559 107.017 97.467 104.418 98.654 C 101.820 99.840 98.935 100.255 96.108 99.848 C 93.281 99.442 90.630 98.231 88.471 96.361 C 86.312 94.490 84.737 92.039 83.932 89.298 C 83.127 86.557 83.127 83.643 83.932 80.902 C 84.737 78.161 86.312 75.710 88.471 73.839 C 90.630 71.969 93.281 70.758 96.108 70.352 C 98.935 69.945 101.820 70.360 104.418 71.546 C 107.017 72.733 109.219 74.641 110.763 77.044 C 112.308 79.447 113.129 82.244 113.129 85.100 Z" stroke="rgb(0,0,255)" stroke-width="0.20" />
  <path d="M 113.129 35.100 C 113.129 37.956 112.308 40.753 110.763 43.156 C 109.219 45.559 107.017 47.467 104.418 48.654 C 101.820 49.840 98.935 50.255 96.108 49.848 C 93.281 49.442 90.630 48.231 88.471 46.361 C 86.312 44.490 84.737 42.039 83.932 39.298 C 83.127 36.557 83.127 33.643 83.932 30.902 C 84.737 28.161 86.312 25.710 88.471 23.839 C 90.630 21.969 93.281 20.758 96.108 20.352 C 98.935 19.945 101.820 20.360 104.418 21.546 C 107.017 22.733 109.219 24.641 110.763 27.044 C 112.308 29.447 113.129 32.244 113.129 35.100 Z" stroke="rgb(0,0,255)" stroke-width="0.20" />
  <path d="M 155.986 85.100 C 155.986 87.956 155.165 90.753 153.620 93.156 C 152.076 95.559 149.874 97.467 147.275 98.654 C 144.677 99.840 141.793 100.255 138.965 99.848 C 136.138 99.442 133.487 98.231 131.328 96.361 C 129.170 94.490 127.594 92.039 126.789 89.298 C 125.985 86.557 125.985 83.643 126.789 80.902 C 127.594 78.161 129.170 75.710 131.328 73.839 C 133.487 71.969 136.138 70.758 138.965 70.352 C 141.793 69.945 144.677 70.360 147.275 71.546 C 149.874 72.733 152.076 74.641 153.620 77.044 C 155.165 79.447 155.986 82.244 155.986 85.100 Z" stroke="rgb(0,0,255)" stroke-width="0.20" />
  <path d="M 155.986 35.100 C 155.986 37.956 155.165 40.753 153.620 43.156 C 152.076 45.559 149.874 47.467 147.275 48.654 C 144.677 49.840 141.793 50.255 138.965 49.848 C 136.138 49.442 133.487 48.231 131.328 46.361 C 129.170 44.490 127.594 42.039 126.789 39.298 C 125.985 36.557 125.985 33.643 126.789 30.902 C 127.594 28.161 129.170 25.710 131.328 23.839 C 133.487 21.969 136.138 20.758 138.965 20.352 C 141.793 19.945 144.677 20.360 147.275 21.546 C 149.874 22.733 152.076 24.641 153.620 27.044 C 155.165 29.447 155.986 32.244 155.986 35.100 Z" stroke="rgb(0,0,255)" stroke-width="0.20" />
  <path d="M 198.843 85.100 C 198.843 87.956 198.022 90.753 196.478 93.156 C 194.933 95.559 192.731 97.467 190.133 98.654 C 187.534 99.840 184.650 100.255 181.822 99.848 C 178.995 99.442 176.344 98.231 174.185 96.361 C 172.027 94.490 170.451 92.039 169.646 89.298 C 168.842 86.557 168.842 83.643 169.646 80.902 C 170.451 78.161 172.027 75.710 174.185 73.839 C 176.344 71.969 178.995 70.758 181.822 70.352 C 184.650 69.945 187.534 70.360 190.133 71.546 C 192.731 72.733 194.933 74.641 196.478 77.044 C 198.022 79.447 198.843 82.244 198.843 85.100 Z" stroke="rgb(0,0,255)" stroke-width="0.20" />
  <path d="M 198.843 35.100 C 198.843 37.956 198.022 40.753 196.478 43.156 C 194.933 45.559 192.731 47.467 190.133 48.654 C 187.534 49.840 184.650 50.255 181.822 49.848 C 178.995 49.442 176.344 48.231 174.185 46.361 C 172.027 44.490 170.451 42.039 169.646 39.298 C 168.842 36.557 168.842 33.643 169.646 30.902 C 170.451 28.161 172.027 25.710 174.185 23.839 C 176.344 21.969 178.995 20.758 181.822 20.352 C 184.650 19.945 187.534 20.360 190.133 21.546 C 192.731 22.733 194.933 24.641 196.478 27.044 C 198.022 29.447 198.843 32.244 198.843 35.100 Z" stroke="rgb(0,0,255)" stroke-width="0.20" />
  <path d="M 241.700 85.100 C 241.700 87.956 240.879 90.753 239.335 93.156 C 237.790 95.559 235.588 97.467 232.990 98.654 C 230.391 99.840 227.507 100.255 224.680 99.848 C 221.852 99.442 219.201 98.231 217.043 96.361 C 214.884 94.490 213.308 92.039 212.504 89.298 C 211.699 86.557 211.699 83.643 212.504 80.902 C 213.308 78.161 214.884 75.710 217.043 73.839 C 219.201 71.969 221.852 70.758 224.680 70.352 C 227.507 69.945 230.391 70.360 232.990 71.546 C 235.588 72.733 237.790 74.641 239.335 77.044 C 240.879 79.447 241.700 82.244 241.700 85.100 Z" stroke="rgb(0,0,255)" stroke-width="0.20" />
  <path d="M 241.700 35.100 C 241.700 37.956 240.879 40.753 239.335 43.156 C 237.790 45.559 235.588 47.467 232.990 48.654 C 230.391 49.840 227.507 50.255 224.680 49.848 C 221.852 49.442 219.201 48.231 217.043 46.361 C 214.884 44.490 213.308 42.039 212.504 39.298 C 211.699 36.557 211.699 33.643 212.504 30.902 C 213.308 28.161 214.884 25.710 217.043 23.839 C 219.201 21.969 221.852 20.758 224.680 20.352 C 227.507 19.945 230.391 20.360 232.990 21.546 C 235.588 22.733 237.790 24.641 239.335 27.044 C 240.879 29.447 241.700 32.244 241.700 35.100 Z" stroke="rgb(0,0,255)" stroke-width="0.20" />
  <path d="M 284.557 85.100 C 284.557 87.956 283.736 90.753 282.192 93.156 C 280.648 95.559 278.445 97.467 275.847 98.654 C 273.249 99.840 270.364 100.255 267.537 99.848 C 264.709 99.442 262.058 98.231 259.900 96.361 C 257.741 94.490 256.165 92.039 255.361 89.298 C 254.556 86.557 254.556 83.643 255.361 80.902 C 256.165 78.161 257.741 75.710 259.900 73.839 C 262.058 71.969 264.709 70.758 267.537 70.352 C 270.364 69.945 273.249 70.360 275.847 71.546 C 278.445 72.733 280.648 74.641 282.192 77.044 C 283.736 79.447 284.557 82.244 284.557 85.100 Z" stroke="rgb(0,0,255)" stroke-width="0.20" />
  <path d="M 284.557 35.100 C 284.557 37.956 283.736 40.753 282.192 43.156 C 280.648 45.559 278.445 47.467 275.847 48.654 C 273.249 49.840 270.364 50.255 267.537 49.848 C 264.709 49.442 262.058 48.231 259.900 46.361 C 257.741 44.490 256.165 42.039 255.361 39.298 C 254.556 36.557 254.556 33.643 255.361 30.902 C 256.165 28.161 257.741 25.710 259.900 23.839 C 262.058 21.969 264.709 20.758 267.537 20.352 C 270.364 19.945 273.249 20.360 275.847 21.546 C 278.445 22.733 280.648 24.641 282.192 27.044 C 283.736 29.447 284.557 32.244 284.557 35.100 Z" stroke="rgb(0,0,255)" stroke-width="0.20" />
  <path d="M 327.414 85.100 C 327.414 87.956 326.593 90.753 325.049 93.156 C 323.505 95.559 321.302 97.467 318.704 98.654 C 316.106 99.840 313.221 100.255 310.394 99.848 C 307.566 99.442 304.916 98.231 302.757 96.361 C 300.598 94.490 299.023 92.039 298.218 89.298 C 297.413 86.557 297.413 83.643 298.218 80.902 C 299.023 78.161 300.598 75.710 302.757 73.839 C 304.916 71.969 307.566 70.758 310.394 70.352 C 313.221 69.945 316.106 70.360 318.704 71.546 C 321.302 72.733 323.505 74.641 325.049 77.044 C 326.593 79.447 327.414 82.244 327.414 85.100 Z" stroke="rgb(0,0,255)" stroke-width="0.20" />
  <path d="M 327.414 35.100 C 327.414 37.956 326.593 40.753 325.049 43.156 C 323.505 45.559 321.302 47.467 318.704 48.654 C 316.106 49.840 313.221 50.255 310.394 49.848 C 307.566 49.442 304.916 48.231 302.757 46.361 C 300.598 44.490 299.023 42.039 298.218 39.298 C 297.413 36.557 297.413 33.643 298.218 30.902 C 299.023 28.161 300.598 25.710 302.757 23.839 C 304.916 21.969 307.566 20.758 310.394 20.352 C 313.221 19.945 316.106 20.360 318.704 21.546 C 321.302 22.733 323.505 24.641 325.049 27.044 C 326.593 29.447 327.414 32.244 327.414 35.100 Z" stroke="rgb(0,0,255)" stroke-width="0.20" />
  <path d="M 370.271 85.100 C 370.271 87.956 369.450 90.753 367.906 93.156 C 366.362 95.559 364.159 97.467 361.561 98.654 C 358.963 99.840 356.078 100.255 353.251 99.848 C 350.424 99.442 347.773 98.231 345.614 96.361 C 343.455 94.490 341.880 92.039 341.075 89.298 C 340.270 86.557 340.270 83.643 341.075 80.902 C 341.880 78.161 343.455 75.710 345.614 73.839 C 347.773 71.969 350.424 70.758 353.251 70.352 C 356.078 69.945 358.963 70.360 361.561 71.546 C 364.159 72.733 366.362 74.641 367.906 77.044 C 369.450 79.447 370.271 82.244 370.271 85.100 Z" stroke="rgb(0,0,255)" stroke-width="0.20" />
  <path d="M 370.271 35.100 C 370.271 37.956 369.450 40.753 367.906 43.156 C 366.362 45.559 364.159 47.467 361.561 48.654 C 358.963 49.840 356.078 50.255 353.251 49.848 C 350.424 49.442 347.773 48.231 345.614 46.361 C 343.455 44.490 341.880 42.039 341.075 39.298 C 340.270 36.557 340.270 33.643 341.075 30.902 C 341.880 28.161 343.455 25.710 345.614 23.839 C 347.773 21.969 350.424 20.758 353.251 20.352 C 356.078 19.945 358.963 20.360 361.561 21.546 C 364.159 22.733 366.362 24.641 367.906 27.044 C 369.450 29.447 370.271 32.244 370.271 35.100 Z" stroke="rgb(0,0,255)" stroke-width="0.20" />
  <path d="M 76.800 110.200 H 376.800 C 376.855 110.200 376.900 110.155 376.900 110.100 V 99.200 C 376.900 99.100 376.800 99.200 376.900 99.200 H 379.800 C 379.855 99.200 379.900 99.155 379.900 99.100 V 93.100 C 379.900 93.045 379.855 93.000 379.800 93.000 H 376.900 C 376.800 93.000 376.900 93.100 376.900 93.000 V 87.200 C 376.900 87.100 376.800 87.200 376.900 87.200 H 379.800 C 379.855 87.200 379.900 87.155 379.900 87.100 V 81.100 C 379.900 81.045 379.855 81.000 379.800 81.000 H 376.900 C 376.800 81.000 376.900 81.100 376.900 81.000 V 75.200 C 376.900 75.100 376.800 75.200 376.900 75.200 H 379.800 C 379.855 75.200 379.900 75.155 379.900 75.100 V 69.100 C 379.900 69.045 379.855 69.000 379.800 69.000 H 376.900 C 376.800 69.000 376.900 69.100 376.900 69.000 V 63.200 C 376.900 63.100 376.800 63.200 376.900 63.200 H 379.800 C 379.855 63.200 379.900 63.155 379.900 63.100 V 57.100 C 379.900 57.045 379.855 57.000 379.800 57.000 H 376.900 C 376.800 57.000 376.900 57.100 376.900 57.000 V 51.200 C 376.900 51.100 376.800 51.200 376.900 51.200 H 379.800 C 379.855 51.200 379.900 51.155 379.900 51.100 V 45.100 C 379.900 45.045 379.855 45.000 379.800 45.000 H 376.900 C 376.800 45.000 376.900 45.100 376.900 45.000 V 39.200 C 376.900 39.100 376.800 39.200 376.900 39.200 H 379.800 C 379.855 39.200 379.900 39.155 379.900 39.100 V 33.100 C 379.900 33.045 379.855 33.000 379.800 33.000 H 376.900 C 376.800 33.000 376.900 33.100 376.900 33.000 V 27.200 C 376.900 27.100 376.800 27.200 376.900 27.200 H 379.800 C 379.855 27.200 379.900 27.155 379.900 27.100 V 21.100 C 379.900 21.045 379.855 21.000 379.800 21.000 H 376.900 C 376.800 21.000 376.900 21.100 376.900 21.000 V 10.100 C 376.900 10.045 376.855 10.000 376.800 10.000 H 76.800 C 76.745 10.000 76.700 10.045 76.700 10.100 V 21.000 C 76.700 21.100 76.800 21.000 76.700 21.000 H 73.800 C 73.745 21.000 73.700 21.045 73.700 21.100 V 27.100 C 73.700 27.155 73.745 27.200 73.800 27.200 H 76.700 C 76.800 27.200 76.700 27.100 76.700 27.200 V 33.000 C 76.700 33.100 76.800 33.000 76.700 33.000 H 73.800 C 73.745 33.000 73.700 33.045 73.700 33.100 V 39.100 C 73.700 39.155 73.745 39.200 73.800 39.200 H 76.700 C 76.800 39.200 76.700 39.100 76.700 39.200 V 45.000 C 76.700 45.100 76.800 45.000 76.700 45.000 H 73.800 C 73.745 45.000 73.700 45.045 73.700 45.100 V 51.100 C 73.700 51.155 73.745 51.200 73.800 51.200 H 76.700 C 76.800 51.200 76.700 51.100 76.700 51.200 V 57.000 C 76.700 57.100 76.800 57.000 76.700 57.000 H 73.800 C 73.745 57.000 73.700 57.045 73.700 57.100 V 63.100 C 73.700 63.155 73.745 63.200 73.800 63.200 H 76.700 C 76.800 63.200 76.700 63.100 76.700 63.200 V 69.000 C 76.700 69.100 76.800 69.000 76.700 69.000 H 73.800 C 73.745 69.000 73.700 69.045 73.700 69.100 V 75.100 C 73.700 75.155 73.745 75.200 73.800 75.200 H 76.700 C 76.800 75.200 76.700 75.100 76.700 75.200 V 81.000 C 76.700 81.100 76.800 81.000 76.700 81.000 H 73.800 C 73.745 81.000 73.700 81.045 73.700 81.100 V 87.100 C 73.700 87.155 73.745 87.200 73.800 87.200 H 76.700 C 76.800 87.200 76.700 87.100 76.700 87.200 V 93.000 C 76.700 93.100 76.800 93.000 76.700 93.000 H 73.800 C 73.745 93.000 73.700 93.045 73.700 93.100 V 99.100 C 73.700 99.155 73.745 99.200 73.800 99.200 H 76.700 C 76.800 99.200 76.700 99.100 76.700 99.200 V 110.100 C 76.700 110.155 76.745 110.200 76.800 110.200 Z" stroke="rgb(0,0,0)" stroke-width="0.20" />
</g>
<g id="p-6" style="fill:none;stroke-linecap:round;stroke-linejoin:round;">
  <path d="M 30.767 85.000 C 29.819 85.000 28.888 84.750 28.067 84.277 C 27.246 83.803 26.564 83.121 26.090 82.300 C 25.616 81.479 25.367 80.548 25.367 79.600 V 40.600 C 25.367 39.652 25.616 38.721 26.090 37.900 C 26.564 37.079 27.246 36.397 28.067 35.923 C 28.888 35.450 29.819 35.200 30.767 35.200 C 31.715 35.200 32.646 35.450 33.467 35.923 C 34.288 36.397 34.969 37.079 35.443 37.900 C 35.917 38.721 36.167 39.652 36.167 40.600 V 79.600 C 36.167 80.548 35.917 81.479 35.443 82.300 C 34.969 83.121 34.288 83.803 33.467 84.277 C 32.646 84.750 31.715 85.000 30.767 85.000 Z" stroke="rgb(0,0,255)" stroke-width="0.20" />
  <path d="M 16.100 110.200 H 60.100 H 72.100 C 72.155 110.200 72.200 110.155 72.200 110.100 V 98.100 C 72.200 97.029 71.918 95.977 71.383 95.050 C 70.847 94.123 70.077 93.353 69.150 92.817 C 68.253 92.299 67.508 91.555 66.990 90.658 C 66.473 89.761 66.200 88.743 66.200 87.708 V 32.492 C 66.200 31.457 66.473 30.439 66.990 29.542 C 67.508 28.645 68.253 27.901 69.150 27.383 C 70.077 26.847 70.847 26.077 71.383 25.150 C 71.918 24.223 72.200 23.171 72.200 22.100 V 10.100 C 72.200 10.045 72.155 10.000 72.100 10.000 H 60.100 H 16.100 C 16.045 10.000 16.000 10.045 16.000 10.100 V 22.100 C 16.000 23.136 15.727 24.153 15.210 25.050 C 14.692 25.947 13.947 26.692 13.050 27.210 C 12.123 27.745 11.353 28.515 10.817 29.442 C 10.282 30.370 10.000 31.422 10.000 32.492 V 87.708 C 10.000 88.778 10.282 89.830 10.817 90.758 C 11.353 91.685 12.123 92.455 13.050 92.990 C 13.947 93.508 14.692 94.253 15.210 95.150 C 15.727 96.047 16.000 97.064 16.000 98.100 V 110.100 C 16.000 110.155 16.045 110.200 16.100 110.200 Z" stroke="rgb(0,0,0)" stroke-width="0.20" />
  <path d="M 44.833 96.100 V 99.000 C 44.833 99.100 44.933 99.000 44.833 99.000 H 42.033 C 41.933 99.000 42.033 99.100 42.033 99.000 V 93.200 C 42.033 93.100 41.933 93.200 42.033 93.200 H 44.833 C 44.933 93.200 44.833 93.100 44.833 93.200 V 96.100 Z" stroke="rgb(0,0,255)" stroke-width="0.20" />
  <path d="M 44.833 84.100 V 87.000 C 44.833 87.100 44.933 87.000 44.833 87.000 H 42.033 C 41.933 87.000 42.033 87.100 42.033 87.000 V 81.200 C 42.033 81.100 41.933 81.200 42.033 81.200 H 44.833 C 44.933 81.200 44.833 81.100 44.833 81.200 V 84.100 Z" stroke="rgb(0,0,255)" stroke-width="0.20" />
  <path d="M 44.833 72.100 V 75.000 C 44.833 75.100 44.933 75.000 44.833 75.000 H 42.033 C 41.933 75.000 42.033 75.100 42.033 75.000 V 69.200 C 42.033 69.100 41.933 69.200 42.033 69.200 H 44.833 C 44.933 69.200 44.833 69.100 44.833 69.200 V 72.100 Z" stroke="rgb(0,0,255)" stroke-width="0.20" />
  <path d="M 44.833 60.100 V 63.000 C 44.833 63.100 44.933 63.000 44.833 63.000 H 42.033 C 41.933 63.000 42.033 63.100 42.033 63.000 V 57.200 C 42.033 57.100 41.933 57.200 42.033 57.200 H 44.833 C 44.933 57.200 44.833 57.100 44.833 57.200 V 60.100 Z" stroke="rgb(0,0,255)" stroke-width="0.20" />
  <path d="M 44.833 48.100 V 51.000 C 44.833 51.100 44.933 51.000 44.833 51.000 H 42.033 C 41.933 51.000 42.033 51.100 42.033 51.000 V 45.200 C 42.033 45.100 41.933 45.200 42.033 45.200 H 44.833 C 44.933 45.200 44.833 45.100 44.833 45.200 V 48.100 Z" stroke="rgb(0,0,255)" stroke-width="0.20" />
  <path d="M 44.833 36.100 V 39.000 C 44.833 39.100 44.933 39.000 44.833 39.000 H 42.033 C 41.933 39.000 42.033 39.100 42.033 39.000 V 33.200 C 42.033 33.100 41.933 33.200 42.033 33.200 H 44.833 C 44.933 33.200 44.833 33.100 44.833 33.200 V 36.100 Z" stroke="rgb(0,0,255)" stroke-width="0.20" />
  <path d="M 44.833 24.100 V 27.000 C 44.833 27.100 44.933 27.000 44.833 27.000 H 42.033 C 41.933 27.000 42.033 27.100 42.033 27.000 V 21.200 C 42.033 21.100 41.933 21.200 42.033 21.200 H 44.833 C 44.933 21.200 44.833 21.100 44.833 21.200 V 24.100 Z" stroke="rgb(0,0,255)" stroke-width="0.20" />
  <path d="M 63.100 96.100 V 99.000 C 63.100 99.100 63.200 99.000 63.100 99.000 H 60.300 C 60.200 99.000 60.300 99.100 60.300 99.000 V 93.200 C 60.300 93.100 60.200 93.200 60.300 93.200 H 63.100 C 63.200 93.200 63.100 93.100 63.100 93.200 V 96.100 Z" stroke="rgb(0,0,255)" stroke-width="0.20" />
  <path d="M 63.100 84.100 V 87.000 C 63.100 87.100 63.200 87.000 63.100 87.000 H 60.300 C 60.200 87.000 60.300 87.100 60.300 87.000 V 81.200 C 60.300 81.100 60.200 81.200 60.300 81.200 H 63.100 C 63.200 81.200 63.100 81.100 63.100 81.200 V 84.100 Z" stroke="rgb(0,0,255)" stroke-width="0.20" />
  <path d="M 63.100 72.100 V 75.000 C 63.100 75.100 63.200 75.000 63.100 75.000 H 60.300 C 60.200 75.000 60.300 75.100 60.300 75.000 V 69.200 C 60.300 69.100 60.200 69.200 60.300 69.200 H 63.100 C 63.200 69.200 63.100 69.100 63.100 69.200 V 72.100 Z" stroke="rgb(0,0,255)" stroke-width="0.20" />
  <path d="M 63.100 60.100 V 63.000 C 63.100 63.100 63.200 63.000 63.100 63.000 H 60.300 C 60.200 63.000 60.300 63.100 60.300 63.000 V 57.200 C 60.300 57.100 60.200 57.200 60.300 57.200 H 63.100 C 63.200 57.200 63.100 57.100 63.100 57.200 V 60.100 Z" stroke="rgb(0,0,255)" stroke-width="0.20" />
  <path d="M 63.100 48.100 V 51.000 C 63.100 51.100 63.200 51.000 63.100 51.000 H 60.300 C 60.200 51.000 60.300 51.100 60.300 51.000 V 45.200 C 60.300 45.100 60.200 45.200 60.300 45.200 H 63.100 C 63.200 45.200 63.100 45.100 63.100 45.200 V 48.100 Z" stroke="rgb(0,0,255)" stroke-width="0.20" />
  <path d="M 63.100 36.100 V 39.000 C 63.100 39.100 63.200 39.000 63.100 39.000 H 60.300 C 60.200 39.000 60.300 39.100 60.300 39.000 V 33.200 C 60.300 33.100 60.200 33.200 60.300 33.200 H 63.100 C 63.200 33.200 63.100 33.100 63.100 33.200 V 36.100 Z" stroke="rgb(0,0,255)" stroke-width="0.20" />
  <path d="M 63.100 24.100 V 27.000 C 63.100 27.100 63.200 27.000 63.100 27.000 H 60.300 C 60.200 27.000 60.300 27.100 60.300 27.000 V 21.200 C 60.300 21.100 60.200 21.200 60.300 21.200 H 63.100 C 63.200 21.200 63.100 21.100 63.100 21.200 V 24.100 Z" stroke="rgb(0,0,255)" stroke-width="0.20" />
</g>
</svg>